<svg xmlns="http://www.w3.org/2000/svg" width="200" height="200" viewBox="0 0 1024 1024">
  <path d="M 435.84 800.93 C438.55,807.02 440.49,812.00 440.14,812.00 C439.24,812.00 419.91,800.32 409.33,793.39 C383.89,776.73 349.81,749.94 320.00,723.18 C305.14,709.84 271.89,676.77 258.49,661.99 C185.38,581.37 145.03,503.02 135.40,423.00 C133.13,404.13 133.87,369.39 136.90,352.50 C146.91,296.71 169.23,253.19 206.14,217.49 C237.16,187.50 270.95,170.33 314.50,162.41 C326.30,160.27 354.69,159.46 367.83,160.88 C437.54,168.47 499.38,211.50 530.27,273.90 L 536.50 286.50 L 536.53 310.82 C536.55,324.20 536.31,335.31 536.00,335.50 C535.68,335.70 530.72,329.48 524.96,321.68 C513.26,305.81 492.50,284.21 479.48,274.34 C454.12,255.11 432.16,244.79 404.00,238.86 C389.74,235.86 363.21,235.62 348.50,238.37 C327.32,242.32 306.85,250.64 288.32,262.83 C277.27,270.10 259.09,287.40 250.59,298.72 C233.62,321.34 222.07,348.34 216.47,378.50 C213.88,392.48 213.35,424.44 215.45,440.88 C219.10,469.58 228.21,498.12 242.12,524.43 L 246.31 532.35 L 248.72 529.43 C259.72,516.10 281.92,477.99 290.33,458.00 C313.99,401.75 317.39,394.54 326.84,380.41 C334.54,368.89 346.25,357.67 355.76,352.68 C395.37,331.93 467.11,347.33 489.12,381.32 C491.19,384.52 493.64,389.24 494.57,391.82 C498.37,402.36 501.86,408.79 505.13,411.28 C511.22,415.91 523.19,420.96 544.00,427.66 C577.14,438.32 579.50,439.83 579.50,450.33 C579.50,455.65 578.69,458.37 573.64,470.00 C565.14,489.60 560.70,497.73 554.76,504.54 C551.87,507.87 547.71,512.95 545.51,515.83 C543.32,518.72 540.47,521.78 539.17,522.63 C530.61,528.23 510.49,530.96 491.80,529.06 C485.04,528.38 474.03,527.58 467.35,527.29 C455.93,526.80 454.86,526.92 449.76,529.25 C434.92,536.05 423.49,557.01 415.82,591.50 C413.75,600.85 413.57,604.48 413.21,647.00 C412.80,694.34 413.39,707.42 417.10,733.00 C421.03,760.13 426.54,780.09 435.84,800.93 Z" fill="#ffffff" opacity="0.9"/>
  <path d="M 548.77 851.80 C539.13,856.74 537.29,857.33 530.76,857.62 C526.77,857.80 522.37,857.58 520.99,857.13 C509.69,853.42 494.70,840.29 485.46,826.00 C467.03,797.51 461.86,766.43 470.11,733.69 C472.78,723.09 475.18,716.86 482.72,701.00 C492.08,681.30 492.61,678.68 490.42,662.67 C486.96,637.43 491.68,618.71 506.09,600.50 C519.32,583.79 532.76,575.07 552.32,570.52 L 563.91 567.82 L 571.59 559.16 C575.81,554.40 582.01,547.89 585.38,544.69 C598.45,532.28 599.00,532.61 599.01,552.87 C599.01,560.92 599.30,570.51 599.65,574.18 L 600.28 580.86 L 605.64 584.55 C613.16,589.73 622.47,600.01 626.03,607.07 C627.69,610.35 630.11,617.02 631.42,621.88 C634.37,632.91 634.87,633.84 642.24,641.76 L 648.26 648.23 L 647.72 653.46 C647.06,659.85 639.59,675.24 634.31,681.08 C629.67,686.22 627.31,687.40 617.74,689.36 C608.17,691.33 604.48,693.18 602.52,696.97 C600.48,700.91 600.61,704.31 602.98,708.96 C604.80,712.53 621.11,731.08 629.22,738.79 L 632.68 742.08 L 647.59 729.37 C666.01,713.66 709.39,670.32 725.53,651.50 C801.05,563.45 838.55,489.73 844.17,418.24 C851.12,329.95 799.49,254.39 722.00,239.44 C710.55,237.23 686.23,236.93 675.00,238.86 C623.74,247.66 579.77,276.91 543.62,326.23 C536.60,335.81 534.00,338.13 534.00,334.83 C534.00,334.21 532.98,332.46 531.25,329.98 C533.95,333.43 535.81,335.62 536.00,335.50 C536.31,335.31 536.55,324.20 536.53,310.82 L 536.50 286.58 L 536.84 287.27 L 541.01 278.98 C556.87,247.45 580.68,220.57 608.50,202.82 C630.56,188.75 652.61,179.93 678.48,174.85 C691.67,172.25 718.34,171.30 731.60,172.94 C810.41,182.72 873.60,240.13 897.33,323.51 C925.26,421.67 891.12,532.25 798.54,643.50 C767.02,681.39 722.74,725.31 679.50,761.59 C636.78,797.43 584.60,833.44 548.77,851.80 Z" fill="#6efac1"/>
  <path d="M 729.06 483.97 C733.60,481.54 734.00,478.79 734.00,449.55 L 734.00 422.00 L 761.37 422.00 C787.54,422.00 788.85,421.91 791.37,419.93 L 794.00 417.85 L 794.00 393.01 C794.00,379.34 793.72,367.44 793.38,366.54 C791.82,362.49 788.29,362.00 760.55,362.00 L 734.00 362.00 L 734.00 333.95 L 734.00 305.91 L 731.55 303.45 L 729.09 301.00 L 703.80 301.03 C685.49,301.05 678.06,301.40 676.91,302.28 C673.28,305.07 673.00,307.43 673.00,334.93 L 673.00 362.00 L 645.42 362.00 L 617.85 362.00 L 614.92 364.92 L 612.00 367.85 L 612.00 392.47 L 612.00 417.09 L 614.45 419.55 L 616.91 422.00 L 644.95 422.00 L 673.00 422.00 L 673.00 450.58 L 673.00 479.15 L 675.92 482.08 L 678.85 485.00 L 702.99 485.00 C717.63,485.00 727.89,484.60 729.06,483.97 Z" fill="#ffffff"/>
</svg>
